# AST/ASF file generated using VICON BodyLanguage
# -----------------------------------------------
:version 1.10
:name VICON
:units
  mass 1.0
  length 0.45
  angle deg
:documentation
   .ast/.asf automatically generated from VICON data using
   VICON BodyBuilder and BodyLanguage model FoxedUp or BRILLIANT.MOD
:root
   order TX TY TZ RX RY RZ
   axis XYZ
   position 0 0 0  
   orientation 0 0 0 
:bonedata
  begin
     id 1 
     name lhipjoint
     direction 0.714689 -0.624256 0.315473 
     length 2.45343 
     axis 0 0 0  XYZ
  end
  begin
     id 2 
     name lfemur
     direction 0.34202 -0.939693 0  
     length 6.59069  
     axis 0 0 20  XYZ
    dof rx ry rz
    limits (-160.0 20.0)
           (-70.0 70.0)
           (-60.0 70.0)
  end
  begin
     id 3 
     name ltibia
     direction 0.34202 -0.939693 0   
     length 6.73476   
     axis 0 0 20   XYZ
    dof rx
    limits (-10.0 170.0)
  end
  begin
     id 4 
     name lfoot
     direction 0.0718085 -0.197292 0.977711   
     length 1.52607   
     axis -90 7.62852e-016 20   XYZ
    dof rx rz
    limits (-45.0 90.0)
           (-70.0 20.0)
  end
  begin
     id 5 
     name ltoes
     direction 1.53553e-011 -4.22024e-011 1   
     length 0.777832   
     axis -90 7.62852e-016 20   XYZ
    dof rx
    limits (-90.0 20.0)
  end
  begin
     id 6 
     name rhipjoint
     direction -0.727419 -0.612432 0.309497   
     length 2.50079  
     axis 0 0 0  XYZ 
  end
  begin
     id 7 
     name rfemur
     direction -0.34202 -0.939693 0   
     length 6.51665   
     axis 0 0 -20   XYZ
    dof rx ry rz
    limits (-160.0 20.0)
           (-70.0 70.0)
           (-70.0 60.0)
  end
  begin
     id 8 
     name rtibia
     direction -0.34202 -0.939693 0   
     length 6.48919   
     axis 0 0 -20   XYZ
    dof rx
    limits (-10.0 170.0)
 end
 begin
     id 9 
     name rfoot
     direction -0.112205 -0.308282 0.944655   
     length 1.68717  
     axis -90 -7.62852e-016 -20   XYZ
    dof rx rz
    limits (-45.0 90.0)
           (-20.0 70.0)
  end
  begin
     id 10 
     name rtoes
     direction -1.53583e-011 -4.21993e-011 1   
     length 0.846859   
     axis -90 -7.62852e-016 -20   XYZ
    dof rx
    limits (-90.0 20.0)
  end
  begin
     id 11 
     name lowerback
     direction -0.00119603 0.996364 -0.0851956   
     length 1.67242   
     axis 0 0 0   XYZ
    dof rx ry rz
    limits (-20.0 45.0)
           (-30.0 30.0)
           (-30.0 30.0)
  end
  begin
     id 12 
     name upperback
     direction -0.00531001 0.998318 0.0577248   
     length 1.64819   
     axis 0 0 0   XYZ
    dof rx ry rz
    limits (-20.0 45.0)
           (-30.0 30.0)
           (-30.0 30.0)
  end
  begin
     id 13 
     name thorax
     direction -0.00653676 0.995132 0.0983291   
     length 1.67429   
     axis 0 0 0   XYZ
    dof rx ry rz
    limits (-20.0 45.0)
           (-30.0 30.0)
           (-30.0 30.0)
  end
  begin
     id 14 
     name lowerneck
     direction 0.0141424 0.999886 0.00525412   
     length 1.59623   
     axis 0 0 0   XYZ
    dof rx ry rz
    limits (-20.0 45.0)
           (-30.0 30.0)
           (-30.0 30.0)
  end
  begin
     id 15 
     name upperneck
     direction -0.0640064 0.987178 -0.146232   
     length 1.59576   
     axis 0 0 0   XYZ
    dof rx ry rz
    limits (-20.0 45.0)
           (-30.0 30.0)
           (-30.0 30.0)
  end
  begin
     id 16
     name head
     direction -0.0222942 0.998496 -0.0500859  
     length 1.60959  
     axis 0 0 0   XYZ
    dof rx ry rz
    limits (-20.0 45.0)
           (-30.0 30.0)
           (-30.0 30.0)
  end
  begin
     id 17 
     name lclavicle
     direction 0.908549 0.392612 0.142806  
     length 2.80649  
     axis 0 0 0   XYZ
    dof ry rz
    limits (-20.0 10.0)
           (0.0 20.0)
  end
  begin
     id 18 
     name lhumerus
     direction 1 -4.48968e-011 1.08832e-028   
     length 4.2884   
     axis -180 -30 -90   XYZ
    dof rx ry rz
    limits (-60.0 90.0)
           (-90.0 90.0)
           (-90.0 90.0)
  end
  begin
     id 19
     name lradius
     direction 1 -4.48952e-011 -3.02642e-028   
     length 3.06552   
     axis -180 -30 -90   XYZ
    dof rx
    limits (-10.0 170.0)
  end
  begin
     id 20
     name lwrist
     direction 1 -4.49014e-011 1.58672e-027   
     length 1.53276   
     axis -1.65735e-015 90 90   XYZ
    dof ry
    limits (-180.0 0.0)
 end
  begin
     id 21 
     name lhand
     direction 1 -4.48928e-011 3.17344e-027   
     length 0.753045   
     axis -2.02492e-015 90 90   XYZ
    dof rx rz
    limits (-90.0 90.0)
           (-45.0 45.0)
  end
  begin
     id 22 
     name lfingers
     direction 1 -4.48958e-011 6.34687e-027   
     length 0.607124   
     axis -4.04985e-015 90 90   XYZ
    dof rx
    limits (0.0 90.0)
  end
  begin
     id 23
     name lthumb
     direction 0.707107 -6.34905e-011 0.707107   
     length 0.871712   
     axis -90 45 2.85299e-015   XYZ
    dof rx rz
    limits (-45.0 45.0)
           (-45.0 45.0)
  end
  begin
     id 24 
     name rclavicle
     direction -0.885098 0.45949 0.0739604   
     length 2.9478  
     axis 0 0 0   XYZ 
    dof ry rz
    limits (-10.0 20.0)
           (-20.0 0.0)
  end
  begin
     id 25 
     name rhumerus
     direction -1 -4.4898e-011 -2.61739e-027  
     length 4.52172   
     axis -180 30 90   XYZ
    dof rx ry rz
    limits (-90.0 60.0)
           (-90.0 90.0)
           (-90.0 90.0)
  end
  begin
     id 26 
     name rradius
     direction -1 -4.48945e-011 9.02552e-028   
     length 2.8914   
     axis -180 30 90   XYZ
    dof rx
    limits (-10.0 170.0)
  end
  begin
     id 27 
     name rwrist
     direction -1 -4.49018e-011 1.58672e-027   
     length 1.4457   
     axis -1.65735e-015 -90 -90   XYZ
    dof ry
    limits (-180.0 0.0)
  end
  begin
     id 28
     name rhand
     direction -1 -4.48825e-011 3.17344e-027   
     length 0.680541   
     axis -2.02492e-015 -90 -90   XYZ
    dof rx rz
    limits (-90.0 90.0)
           (-45.0 45.0)
  end
  begin
     id 29
     name rfingers
     direction -1 -4.49067e-011 6.34687e-027   
     length 0.54867   
     axis -4.04985e-015 -90 -90   XYZ
    dof rx
    limits (0.0 90.0)
  end
  begin
     id 30
     name rthumb
     direction -0.707107 -6.34833e-011 0.707107   
     length 0.787783   
     axis -90 -45 -2.85299e-015   XYZ
    dof rx rz
    limits (-45.0 45.0)
           (-45.0 45.0)
  end
:hierarchy
  begin
    root lhipjoint rhipjoint lowerback
    lhipjoint lfemur
    lfemur ltibia
    ltibia lfoot
    lfoot ltoes
    rhipjoint rfemur
    rfemur rtibia
    rtibia rfoot
    rfoot rtoes
    lowerback upperback
    upperback thorax
    thorax lowerneck lclavicle rclavicle
    lowerneck upperneck
    upperneck head
    lclavicle lhumerus
    lhumerus lradius
    lradius lwrist
    lwrist lhand lthumb
    lhand lfingers
    rclavicle rhumerus
    rhumerus rradius
    rradius rwrist
    rwrist rhand rthumb
    rhand rfingers
  end

#!OML:ASF E:\emotionWalksFemale\Project 1\Capture day 1\Session 1\Female1.ASF
:FULLY-SPECIFIED
:DEGREES
63
root 9.20957 15.521 22.529 178.739 0.0840326 -179.057
lowerback 9.54414 1.32697 1.7547
upperback -3.61642 2.00685 -0.375173
thorax -9.14511 0.867518 -1.73503
lowerneck -6.93179 -1.8774 -5.38335
upperneck 9.86307 -2.6478 5.38871
head 4.22247 -1.27124 2.37734
rclavicle 3.27622e-014 2.98177e-015
rhumerus -43.9889 2.06188 -75.8236
rradius 43.6923
rwrist 25.0889
rhand -5.48913 -53.6197
rfingers 7.12502
rthumb 20.3234 -82.5764
lclavicle 3.27622e-014 2.98177e-015
lhumerus -38.47 10.7676 65.182
lradius 35.4148
lwrist -14.3418
lhand 1.13124 -34.6772
lfingers 7.12502
lthumb 26.6735 -6.53662
rfemur 0.514151 15.1781 25.537
rtibia 15.5691
rfoot -14.4047 -26.6314
rtoes 1.48289
lfemur -5.59179 -17.7258 -22.4804
ltibia 23.4111
lfoot -18.8659 16.4575
ltoes -40.1673
64
root 9.21275 15.523 22.5295 178.739 -0.0524485 -179.058
lowerback 9.62002 1.29466 1.78126
upperback -3.63471 1.91538 -0.403678
thorax -9.21084 0.797901 -1.76404
lowerneck -6.85725 -1.86854 -5.45493
upperneck 9.79455 -2.64087 5.49576
head 4.19095 -1.26606 2.423
rclavicle 2.2239e-014 9.93923e-016
rhumerus -43.7186 1.89141 -74.9089
rradius 43.6674
rwrist 25.019
rhand -5.16208 -53.9805
rfingers 7.12502
rthumb 20.6377 -82.9033
lclavicle 2.2239e-014 9.93923e-016
lhumerus -38.2109 11.257 63.7989
lradius 35.2515
lwrist -14.7196
lhand 0.472758 -34.2877
lfingers 7.12502
lthumb 26.0431 -6.05282
rfemur 0.569282 15.1384 25.566
rtibia 15.4984
rfoot -14.46 -26.6912
rtoes 1.83339
lfemur -5.63641 -17.8002 -22.457
ltibia 23.441
lfoot -18.9291 16.3512
ltoes -40.157
65
root 9.21557 15.523 22.5295 178.724 -0.167616 -179.055
lowerback 9.68365 1.22472 1.72336
upperback -3.63882 1.81862 -0.365301
thorax -9.25962 0.755018 -1.67598
lowerneck -6.81346 -1.82852 -5.60627
upperneck 9.77282 -2.58748 5.63438
head 4.17747 -1.23907 2.49408
rclavicle -1.0548e-014 -2.98177e-015
rhumerus -43.4298 1.88695 -73.9608
rradius 43.5931
rwrist 25.0369
rhand -4.46711 -55.0607
rfingers 7.12502
rthumb 21.3053 -83.9096
lclavicle -1.0548e-014 -2.98177e-015
lhumerus -38.0249 11.7693 62.4906
lradius 35.1484
lwrist -14.6779
lhand 0.0355685 -33.2392
lfingers 7.12502
lthumb 25.6244 -4.94331
rfemur 0.584795 15.1469 25.6036
rtibia 15.5259
rfoot -14.4466 -26.8096
rtoes 1.51808
lfemur -5.63353 -17.826 -22.4384
ltibia 23.4165
lfoot -18.7729 16.3812
ltoes -40.6648
66
root 9.21681 15.5231 22.5307 178.781 0.0161389 -179.11
lowerback 9.70813 1.21714 1.59482
upperback -3.65709 1.84599 -0.328314
thorax -9.29859 0.797983 -1.57365
lowerneck -6.81995 -1.79057 -5.71533
upperneck 9.83799 -2.5331 5.67761
head 4.197 -1.2147 2.52861
rclavicle -1.33186e-014 -4.17448e-015
rhumerus -43.1449 2.00308 -73.0601
rradius 43.5282
rwrist 24.9015
rhand -3.97825 -55.8099
rfingers 7.12502
rthumb 21.7748 -84.605
lclavicle -1.33186e-014 -4.17448e-015
lhumerus -37.7875 12.3688 61.1883
lradius 34.8607
lwrist -14.6706
lhand -0.661501 -32.0152
lfingers 7.12502
lthumb 24.9566 -3.62495
rfemur 0.474076 15.2094 25.513
rtibia 15.5509
rfoot -14.3732 -26.748
rtoes 0.868477
lfemur -5.66085 -17.7154 -22.4879
ltibia 23.3884
lfoot -18.5752 16.6049
ltoes -41.0546
67
root 9.21848 15.5279 22.5352 178.991 0.721383 -179.209
lowerback 9.64171 1.4413 1.39358
upperback -3.71134 2.12284 -0.310273
thorax -9.31639 0.945015 -1.4884
lowerneck -6.79435 -1.80007 -5.75501
upperneck 9.79798 -2.53285 5.62154
head 4.18045 -1.21838 2.51794
rclavicle 1.94809e-014 -2.48481e-015
rhumerus -42.8622 2.04526 -72.1497
rradius 43.5417
rwrist 24.5488
rhand -4.26426 -55.7913
rfingers 7.12502
rthumb 21.5002 -84.6181
lclavicle 1.94809e-014 -2.48481e-015
lhumerus -37.5083 12.9595 59.912
lradius 34.5995
lwrist -14.9588
lhand -1.25831 -31.5989
lfingers 7.12502
lthumb 24.3846 -3.13046
rfemur 0.0855483 15.3865 25.267
rtibia 15.5916
rfoot -14.2503 -26.2835
rtoes 0.367352
lfemur -5.8427 -17.456 -22.5507
ltibia 23.3791
lfoot -18.5515 16.987
ltoes -40.9644
68
root 9.22073 15.5297 22.5357 179.027 0.765143 -179.175
lowerback 9.66309 1.44257 1.39798
upperback -3.7082 2.12812 -0.276592
thorax -9.3265 0.948223 -1.45654
lowerneck -6.7506 -1.81081 -5.76797
upperneck 9.72632 -2.53321 5.53922
head 4.15067 -1.2226 2.49482
rclavicle 2.23012e-014 -6.95746e-015
rhumerus -42.5969 1.9906 -71.2339
rradius 43.4529
rwrist 24.1489
rhand -4.92393 -55.2977
rfingers 7.12502
rthumb 20.8665 -84.1955
lclavicle 2.23012e-014 -6.95746e-015
lhumerus -37.3028 13.4504 58.5927
lradius 34.3513
lwrist -15.1926
lhand -1.20987 -32.2068
lfingers 7.12502
lthumb 24.431 -3.74458
rfemur 0.00660347 15.4351 25.3077
rtibia 15.6547
rfoot -14.361 -26.2989
rtoes 0.3856
lfemur -5.89035 -17.5152 -22.4922
ltibia 23.3842
lfoot -18.5562 17.0153
ltoes -40.9892
69
root 9.22353 15.5275 22.5367 179.047 0.831401 -179.126
lowerback 9.74991 1.44091 1.45131
upperback -3.71835 2.13396 -0.280809
thorax -9.3865 0.946547 -1.4952
lowerneck -6.79446 -1.81018 -5.7529
upperneck 9.77591 -2.53236 5.5208
head 4.17263 -1.22227 2.48648
rclavicle 7.4917e-015 -2.5842e-015
rhumerus -42.3457 1.87882 -70.3836
rradius 43.1965
rwrist 24.037
rhand -5.36481 -54.3296
rfingers 7.12502
rthumb 20.4429 -83.2735
lclavicle 7.4917e-015 -2.5842e-015
lhumerus -37.0888 13.7294 57.2947
lradius 34.0427
lwrist -14.9366
lhand -0.968947 -32.904
lfingers 7.12502
lthumb 24.662 -4.47315
rfemur -0.0555105 15.4938 25.3681
rtibia 15.6974
rfoot -14.2584 -26.3359
rtoes -0.0175303
lfemur -5.89696 -17.5187 -22.4262
ltibia 23.4056
lfoot -18.6033 17.0653
ltoes -40.7594
